<mxfile host="app.diagrams.net" modified="2020-06-07T10:02:44.294Z" agent="5.0 (Windows)" etag="fXnXRDiTtqJ9jAywSQTn" version="13.1.12" type="github">
  <diagram id="PNnLgokY7eEUdojZbYiC" name="Page-1">
    <mxGraphModel dx="2067" dy="684" grid="1" gridSize="10" guides="1" tooltips="1" connect="1" arrows="1" fold="1" page="1" pageScale="1" pageWidth="827" pageHeight="1169" math="0" shadow="0">
      <root>
        <mxCell id="0" />
        <mxCell id="1" parent="0" />
        <mxCell id="Z8heLtqB9fBzqsU-6SV7-1" value="Utilisateur" style="rounded=0;whiteSpace=wrap;html=1;" parent="1" vertex="1">
          <mxGeometry x="-700" y="10" width="170" height="30" as="geometry" />
        </mxCell>
        <mxCell id="HvSIF3zyz_BLwgicf8cy-4" style="edgeStyle=orthogonalEdgeStyle;rounded=0;orthogonalLoop=1;jettySize=auto;html=1;exitX=0.5;exitY=1;exitDx=0;exitDy=0;entryX=0.5;entryY=0;entryDx=0;entryDy=0;endArrow=none;endFill=0;startArrow=block;startFill=0;startSize=12;" edge="1" parent="1" source="Z8heLtqB9fBzqsU-6SV7-2" target="Z8heLtqB9fBzqsU-6SV7-6">
          <mxGeometry relative="1" as="geometry" />
        </mxCell>
        <mxCell id="HvSIF3zyz_BLwgicf8cy-5" style="edgeStyle=orthogonalEdgeStyle;rounded=0;orthogonalLoop=1;jettySize=auto;html=1;exitX=0.5;exitY=1;exitDx=0;exitDy=0;entryX=0.5;entryY=0;entryDx=0;entryDy=0;endArrow=none;endFill=0;startArrow=block;startFill=0;endSize=14;startSize=12;" edge="1" parent="1" source="Z8heLtqB9fBzqsU-6SV7-2" target="Z8heLtqB9fBzqsU-6SV7-10">
          <mxGeometry relative="1" as="geometry" />
        </mxCell>
        <mxCell id="Z8heLtqB9fBzqsU-6SV7-2" value="# ID_utilisateur : Integer&lt;br&gt;# email : String&lt;br&gt;# password : String&lt;br&gt;# nom : String&lt;br&gt;# prenom : String&lt;br&gt;# droit : Integer" style="rounded=0;whiteSpace=wrap;html=1;align=left;" parent="1" vertex="1">
          <mxGeometry x="-700" y="40" width="170" height="100" as="geometry" />
        </mxCell>
        <mxCell id="Z8heLtqB9fBzqsU-6SV7-6" value="Etudiant" style="rounded=0;whiteSpace=wrap;html=1;" parent="1" vertex="1">
          <mxGeometry x="-820" y="240" width="160" height="30" as="geometry" />
        </mxCell>
        <mxCell id="HvSIF3zyz_BLwgicf8cy-6" style="edgeStyle=orthogonalEdgeStyle;rounded=0;orthogonalLoop=1;jettySize=auto;html=1;exitX=0.5;exitY=1;exitDx=0;exitDy=0;entryX=0.5;entryY=0;entryDx=0;entryDy=0;startArrow=none;startFill=0;endArrow=none;endFill=0;" edge="1" parent="1" source="Z8heLtqB9fBzqsU-6SV7-7" target="Z8heLtqB9fBzqsU-6SV7-14">
          <mxGeometry relative="1" as="geometry" />
        </mxCell>
        <mxCell id="Z8heLtqB9fBzqsU-6SV7-7" value="- numero : Integer" style="rounded=0;whiteSpace=wrap;html=1;align=left;" parent="1" vertex="1">
          <mxGeometry x="-820" y="270" width="160" height="30" as="geometry" />
        </mxCell>
        <mxCell id="HvSIF3zyz_BLwgicf8cy-10" style="edgeStyle=orthogonalEdgeStyle;rounded=0;orthogonalLoop=1;jettySize=auto;html=1;exitX=1;exitY=0.5;exitDx=0;exitDy=0;entryX=0;entryY=0.25;entryDx=0;entryDy=0;startArrow=none;startFill=0;endArrow=open;endFill=0;endSize=12;" edge="1" parent="1" source="Z8heLtqB9fBzqsU-6SV7-10" target="Z8heLtqB9fBzqsU-6SV7-21">
          <mxGeometry relative="1" as="geometry" />
        </mxCell>
        <mxCell id="Z8heLtqB9fBzqsU-6SV7-10" value="Enseignant" style="rounded=0;whiteSpace=wrap;html=1;" parent="1" vertex="1">
          <mxGeometry x="-613" y="240" width="223" height="30" as="geometry" />
        </mxCell>
        <mxCell id="Z8heLtqB9fBzqsU-6SV7-11" value="" style="rounded=0;whiteSpace=wrap;html=1;" parent="1" vertex="1">
          <mxGeometry x="-613" y="270" width="223" height="10" as="geometry" />
        </mxCell>
        <mxCell id="Z8heLtqB9fBzqsU-6SV7-12" value="Promotion" style="rounded=0;whiteSpace=wrap;html=1;" parent="1" vertex="1">
          <mxGeometry x="-808" y="600" width="196" height="30" as="geometry" />
        </mxCell>
        <mxCell id="Z8heLtqB9fBzqsU-6SV7-13" value="ID_promotion : Integer&lt;br&gt;nom : String&lt;br&gt;" style="rounded=0;whiteSpace=wrap;html=1;align=left;" parent="1" vertex="1">
          <mxGeometry x="-808" y="630" width="196" height="40" as="geometry" />
        </mxCell>
        <mxCell id="Z8heLtqB9fBzqsU-6SV7-14" value="Groupe" style="rounded=0;whiteSpace=wrap;html=1;" parent="1" vertex="1">
          <mxGeometry x="-820" y="440" width="220" height="30" as="geometry" />
        </mxCell>
        <mxCell id="HvSIF3zyz_BLwgicf8cy-8" style="edgeStyle=none;rounded=0;orthogonalLoop=1;jettySize=auto;html=1;exitX=0.5;exitY=1;exitDx=0;exitDy=0;entryX=0.5;entryY=0;entryDx=0;entryDy=0;startArrow=none;startFill=0;endArrow=diamondThin;endFill=0;startSize=18;endSize=18;" edge="1" parent="1" source="Z8heLtqB9fBzqsU-6SV7-15" target="Z8heLtqB9fBzqsU-6SV7-12">
          <mxGeometry relative="1" as="geometry" />
        </mxCell>
        <mxCell id="HvSIF3zyz_BLwgicf8cy-15" style="edgeStyle=orthogonalEdgeStyle;rounded=0;orthogonalLoop=1;jettySize=auto;html=1;exitX=1;exitY=0.25;exitDx=0;exitDy=0;entryX=0;entryY=0.25;entryDx=0;entryDy=0;startArrow=none;startFill=0;endArrow=none;endFill=0;" edge="1" parent="1" source="Z8heLtqB9fBzqsU-6SV7-15" target="Z8heLtqB9fBzqsU-6SV7-29">
          <mxGeometry relative="1" as="geometry" />
        </mxCell>
        <mxCell id="Z8heLtqB9fBzqsU-6SV7-15" value="- ID_groupe : Integer&lt;br&gt;- nom : String" style="rounded=0;whiteSpace=wrap;html=1;align=left;" parent="1" vertex="1">
          <mxGeometry x="-820" y="470" width="220" height="40" as="geometry" />
        </mxCell>
        <mxCell id="Z8heLtqB9fBzqsU-6SV7-20" value="Cours" style="rounded=0;whiteSpace=wrap;html=1;" parent="1" vertex="1">
          <mxGeometry x="-270" y="215" width="190" height="30" as="geometry" />
        </mxCell>
        <mxCell id="Z8heLtqB9fBzqsU-6SV7-21" value="- ID_cours : Integer&lt;br&gt;- nom : String" style="rounded=0;whiteSpace=wrap;html=1;align=left;" parent="1" vertex="1">
          <mxGeometry x="-270" y="245" width="190" height="50" as="geometry" />
        </mxCell>
        <mxCell id="Z8heLtqB9fBzqsU-6SV7-22" value="Type_cours" style="rounded=0;whiteSpace=wrap;html=1;" parent="1" vertex="1">
          <mxGeometry x="50" y="465" width="190" height="30" as="geometry" />
        </mxCell>
        <mxCell id="HvSIF3zyz_BLwgicf8cy-12" style="edgeStyle=none;rounded=0;orthogonalLoop=1;jettySize=auto;html=1;exitX=0;exitY=0.25;exitDx=0;exitDy=0;startArrow=open;startFill=0;endArrow=none;endFill=0;startSize=12;" edge="1" parent="1" source="Z8heLtqB9fBzqsU-6SV7-23" target="Z8heLtqB9fBzqsU-6SV7-29">
          <mxGeometry relative="1" as="geometry" />
        </mxCell>
        <mxCell id="Z8heLtqB9fBzqsU-6SV7-23" value="ID_type_cours : Integer&lt;br&gt;nom : String" style="rounded=0;whiteSpace=wrap;html=1;align=left;" parent="1" vertex="1">
          <mxGeometry x="50" y="495" width="190" height="50" as="geometry" />
        </mxCell>
        <mxCell id="Z8heLtqB9fBzqsU-6SV7-24" value="Site" style="rounded=0;whiteSpace=wrap;html=1;" parent="1" vertex="1">
          <mxGeometry x="-520" y="660" width="150" height="30" as="geometry" />
        </mxCell>
        <mxCell id="HvSIF3zyz_BLwgicf8cy-19" style="edgeStyle=orthogonalEdgeStyle;rounded=0;orthogonalLoop=1;jettySize=auto;html=1;exitX=1;exitY=0.25;exitDx=0;exitDy=0;entryX=0;entryY=0.25;entryDx=0;entryDy=0;startArrow=diamondThin;startFill=1;endArrow=none;endFill=0;targetPerimeterSpacing=0;sourcePerimeterSpacing=0;strokeWidth=1;endSize=12;startSize=18;" edge="1" parent="1" source="Z8heLtqB9fBzqsU-6SV7-25" target="Z8heLtqB9fBzqsU-6SV7-27">
          <mxGeometry relative="1" as="geometry" />
        </mxCell>
        <mxCell id="Z8heLtqB9fBzqsU-6SV7-25" value="ID_site : Integer&lt;br&gt;nom : String&lt;br&gt;" style="rounded=0;whiteSpace=wrap;html=1;align=left;" parent="1" vertex="1">
          <mxGeometry x="-520" y="690" width="150" height="50" as="geometry" />
        </mxCell>
        <mxCell id="HvSIF3zyz_BLwgicf8cy-16" style="edgeStyle=orthogonalEdgeStyle;rounded=0;orthogonalLoop=1;jettySize=auto;html=1;exitX=0.5;exitY=0;exitDx=0;exitDy=0;entryX=0.5;entryY=1;entryDx=0;entryDy=0;startArrow=none;startFill=0;endArrow=none;endFill=0;" edge="1" parent="1" source="Z8heLtqB9fBzqsU-6SV7-26" target="Z8heLtqB9fBzqsU-6SV7-29">
          <mxGeometry relative="1" as="geometry" />
        </mxCell>
        <mxCell id="Z8heLtqB9fBzqsU-6SV7-26" value="Salle" style="rounded=0;whiteSpace=wrap;html=1;" parent="1" vertex="1">
          <mxGeometry x="-270" y="660" width="190" height="30" as="geometry" />
        </mxCell>
        <mxCell id="Z8heLtqB9fBzqsU-6SV7-27" value="ID_salle : Integer&lt;br&gt;nom : String&lt;br&gt;capacite : Integer&lt;br&gt;liste_seance : ArrayList&amp;lt;seance&amp;gt;" style="rounded=0;whiteSpace=wrap;html=1;align=left;" parent="1" vertex="1">
          <mxGeometry x="-270" y="690" width="190" height="60" as="geometry" />
        </mxCell>
        <mxCell id="HvSIF3zyz_BLwgicf8cy-11" style="edgeStyle=none;rounded=0;orthogonalLoop=1;jettySize=auto;html=1;exitX=0.5;exitY=0;exitDx=0;exitDy=0;entryX=0.5;entryY=1;entryDx=0;entryDy=0;startArrow=none;startFill=0;endArrow=open;endFill=0;startSize=12;endSize=12;" edge="1" parent="1" source="Z8heLtqB9fBzqsU-6SV7-28" target="Z8heLtqB9fBzqsU-6SV7-21">
          <mxGeometry relative="1" as="geometry" />
        </mxCell>
        <mxCell id="Z8heLtqB9fBzqsU-6SV7-28" value="Seance" style="rounded=0;whiteSpace=wrap;html=1;" parent="1" vertex="1">
          <mxGeometry x="-292.5" y="425" width="235" height="30" as="geometry" />
        </mxCell>
        <mxCell id="HvSIF3zyz_BLwgicf8cy-14" style="edgeStyle=orthogonalEdgeStyle;rounded=0;orthogonalLoop=1;jettySize=auto;html=1;exitX=0;exitY=0.25;exitDx=0;exitDy=0;entryX=0.5;entryY=1;entryDx=0;entryDy=0;startArrow=none;startFill=0;endArrow=none;endFill=0;" edge="1" parent="1" source="Z8heLtqB9fBzqsU-6SV7-29" target="Z8heLtqB9fBzqsU-6SV7-11">
          <mxGeometry relative="1" as="geometry">
            <Array as="points">
              <mxPoint x="-293" y="440" />
              <mxPoint x="-501" y="440" />
            </Array>
          </mxGeometry>
        </mxCell>
        <mxCell id="Z8heLtqB9fBzqsU-6SV7-29" value="- ID_seance : Integer&lt;br&gt;- semaine : Integer&lt;br&gt;- jour : Date&lt;br&gt;- heure_debut : Time&lt;br&gt;- heure_fin : Time&lt;br&gt;- etat : Integer" style="rounded=0;whiteSpace=wrap;html=1;align=left;" parent="1" vertex="1">
          <mxGeometry x="-292.5" y="455" width="235" height="100" as="geometry" />
        </mxCell>
        <mxCell id="HvSIF3zyz_BLwgicf8cy-3" style="edgeStyle=orthogonalEdgeStyle;rounded=0;orthogonalLoop=1;jettySize=auto;html=1;exitX=0.5;exitY=1;exitDx=0;exitDy=0;" edge="1" parent="1" source="Z8heLtqB9fBzqsU-6SV7-11" target="Z8heLtqB9fBzqsU-6SV7-11">
          <mxGeometry relative="1" as="geometry" />
        </mxCell>
      </root>
    </mxGraphModel>
  </diagram>
</mxfile>
